<svg width="18" height="18" viewBox="0 0 18 18" fill="none" xmlns="http://www.w3.org/2000/svg">
<path d="M13.6667 17.1667C12.7384 17.1667 11.8482 16.7979 11.1918 16.1416C10.5354 15.4852 10.1667 14.5949 10.1667 13.6667C10.1667 12.7384 10.5354 11.8482 11.1918 11.1918C11.8482 10.5354 12.7384 10.1667 13.6667 10.1667C14.5949 10.1667 15.4852 10.5354 16.1415 11.1918C16.7979 11.8482 17.1667 12.7384 17.1667 13.6667C17.1667 14.5949 16.7979 15.4852 16.1415 16.1416C15.4852 16.7979 14.5949 17.1667 13.6667 17.1667ZM4.33334 17.1667C3.40508 17.1667 2.51484 16.7979 1.85846 16.1416C1.20208 15.4852 0.833336 14.5949 0.833336 13.6667C0.833336 12.7384 1.20208 11.8482 1.85846 11.1918C2.51484 10.5354 3.40508 10.1667 4.33334 10.1667C5.26159 10.1667 6.15183 10.5354 6.80821 11.1918C7.46459 11.8482 7.83334 12.7384 7.83334 13.6667C7.83334 14.5949 7.46459 15.4852 6.80821 16.1416C6.15183 16.7979 5.26159 17.1667 4.33334 17.1667ZM13.6667 7.83334C12.7384 7.83334 11.8482 7.4646 11.1918 6.80822C10.5354 6.15184 10.1667 5.2616 10.1667 4.33334C10.1667 3.40509 10.5354 2.51485 11.1918 1.85847C11.8482 1.20209 12.7384 0.833344 13.6667 0.833344C14.5949 0.833344 15.4852 1.20209 16.1415 1.85847C16.7979 2.51485 17.1667 3.40509 17.1667 4.33334C17.1667 5.2616 16.7979 6.15184 16.1415 6.80822C15.4852 7.4646 14.5949 7.83334 13.6667 7.83334ZM4.33334 7.83334C3.40508 7.83334 2.51484 7.4646 1.85846 6.80822C1.20208 6.15184 0.833336 5.2616 0.833336 4.33334C0.833336 3.40509 1.20208 2.51485 1.85846 1.85847C2.51484 1.20209 3.40508 0.833344 4.33334 0.833344C5.26159 0.833344 6.15183 1.20209 6.80821 1.85847C7.46459 2.51485 7.83334 3.40509 7.83334 4.33334C7.83334 5.2616 7.46459 6.15184 6.80821 6.80822C6.15183 7.4646 5.26159 7.83334 4.33334 7.83334Z" fill="black"/>
</svg>
